<svg width="20" height="20" viewBox="0 0 20 20" fill="none" xmlns="http://www.w3.org/2000/svg">
<path d="M0 1.11118C0 0.816476 0.0987659 0.533847 0.27457 0.325463C0.450375 0.117079 0.688816 1.04165e-05 0.937441 1.04165e-05H6.25336C7.78701 1.04165e-05 9.14943 0.874127 10.0031 2.22382C10.4393 1.53208 11.0058 0.970758 11.6575 0.58465C12.3092 0.198541 13.0281 -0.00166396 13.7566 1.04165e-05H19.0626C19.3112 1.04165e-05 19.5496 0.117079 19.7254 0.325463C19.9012 0.533847 20 0.816476 20 1.11118V16.6675C20 16.9622 19.9012 17.2448 19.7254 17.4532C19.5496 17.6616 19.3112 17.7786 19.0626 17.7786H13.4292C13.0598 17.7786 12.6941 17.8649 12.3529 18.0324C12.0117 18.1999 11.7017 18.4454 11.4405 18.755L10.6631 19.675C10.4873 19.8831 10.249 20 10.0006 20C9.7522 20 9.51394 19.8831 9.33817 19.675L8.56071 18.755C8.29956 18.4454 7.98953 18.1999 7.64832 18.0324C7.30712 17.8649 6.94141 17.7786 6.57209 17.7786H0.937441C0.688816 17.7786 0.450375 17.6616 0.27457 17.4532C0.0987659 17.2448 0 16.9622 0 16.6675L0 1.11118ZM9.06318 16.4067L9.06818 8.89081L9.06568 5.55287C9.06502 4.66929 8.76843 3.82216 8.24109 3.19765C7.71375 2.57314 6.9988 2.22234 6.25336 2.22234H1.87488V15.5563H6.57084C7.45257 15.5563 8.31642 15.851 9.06318 16.4067ZM10.9431 5.55583L10.9381 16.4038C11.6844 15.8497 12.5473 15.556 13.4279 15.5563H18.1239V2.22234H13.7554C13.0095 2.22234 12.2942 2.57355 11.7668 3.1987C11.2394 3.82385 10.9431 4.67174 10.9431 5.55583Z" fill="#F9DB51"/>
</svg>
