<svg width="37" height="37" viewBox="0 0 37 37" fill="none" xmlns="http://www.w3.org/2000/svg">
<path d="M15.8571 29.0714L13.2143 35.6786M21.1429 29.0714L23.7857 35.6786M10.5714 35.6786H26.4286M34.3571 5.28572H2.64285C2.29239 5.28572 1.95628 5.42494 1.70846 5.67276C1.46065 5.92057 1.32143 6.25668 1.32143 6.60715V27.75C1.32143 28.1005 1.46065 28.4366 1.70846 28.6844C1.95628 28.9322 2.29239 29.0714 2.64285 29.0714H34.3571C34.7076 29.0714 35.0437 28.9322 35.2915 28.6844C35.5393 28.4366 35.6786 28.1005 35.6786 27.75V6.60715C35.6786 6.25668 35.5393 5.92057 35.2915 5.67276C35.0437 5.42494 34.7076 5.28572 34.3571 5.28572Z" stroke="#FFD700" stroke-linecap="round" stroke-linejoin="round"/>
<path d="M11.8929 13.875L7.26785 17.8393L11.2321 21.1429M25.7679 14.5357L29.7321 17.8393L25.1071 21.8036M16.5179 23.125L20.4821 11.2321" stroke="#FFD700" stroke-linecap="round" stroke-linejoin="round"/>
</svg>
