<svg width="40" height="40" viewBox="0 0 40 40" fill="none" xmlns="http://www.w3.org/2000/svg">
<path d="M19.9999 3.33331C17.8112 3.33331 15.644 3.76441 13.6219 4.60199C11.5998 5.43957 9.76245 6.66722 8.21481 8.21487C5.0892 11.3405 3.33325 15.5797 3.33325 20C3.33325 27.3666 8.11659 33.6166 14.7333 35.8333C15.5666 35.9666 15.8333 35.45 15.8333 35V32.1833C11.2166 33.1833 10.2333 29.95 10.2333 29.95C9.46658 28.0166 8.38325 27.5 8.38325 27.5C6.86659 26.4666 8.49992 26.5 8.49992 26.5C10.1666 26.6166 11.0499 28.2166 11.0499 28.2166C12.4999 30.75 14.9499 30 15.8999 29.6C16.0499 28.5166 16.4833 27.7833 16.9499 27.3666C13.2499 26.95 9.36658 25.5166 9.36658 19.1666C9.36658 17.3166 9.99992 15.8333 11.0833 14.65C10.9166 14.2333 10.3333 12.5 11.2499 10.25C11.2499 10.25 12.6499 9.79998 15.8333 11.95C17.1499 11.5833 18.5833 11.4 19.9999 11.4C21.4166 11.4 22.8499 11.5833 24.1666 11.95C27.3499 9.79998 28.7499 10.25 28.7499 10.25C29.6666 12.5 29.0833 14.2333 28.9166 14.65C29.9999 15.8333 30.6332 17.3166 30.6332 19.1666C30.6332 25.5333 26.7333 26.9333 23.0166 27.35C23.6166 27.8666 24.1666 28.8833 24.1666 30.4333V35C24.1666 35.45 24.4333 35.9833 25.2833 35.8333C31.8999 33.6 36.6666 27.3666 36.6666 20C36.6666 17.8113 36.2355 15.644 35.3979 13.6219C34.5603 11.5998 33.3327 9.76251 31.785 8.21487C30.2374 6.66722 28.4001 5.43957 26.378 4.60199C24.3559 3.76441 22.1886 3.33331 19.9999 3.33331Z" fill="white"/>
</svg>
