<svg width="26" height="19" viewBox="0 0 26 19" fill="none" xmlns="http://www.w3.org/2000/svg">
<path fill-rule="evenodd" clip-rule="evenodd" d="M19.0842 0C20.0127 0 20.7806 0.515375 21.3428 1.05687C21.9281 1.61856 22.4648 2.37381 22.9418 3.20625C23.8995 4.87587 24.7331 7.05731 25.2843 9.21263C25.8319 11.3513 26.1349 13.585 25.9414 15.3413C25.7467 17.1048 24.8158 19 22.7349 19C20.9388 19 19.5077 18.0975 18.3371 17.1819L17.9099 16.8388L17.3112 16.3459L16.7709 15.9089C15.5309 14.9292 14.4296 14.25 12.9998 14.25C11.5699 14.25 10.4686 14.9292 9.22861 15.9089L8.68831 16.3459L8.0896 16.8388L7.66368 17.1819C6.4906 18.0975 5.05953 19 3.26461 19C1.18251 19 0.251582 17.1048 0.0580958 15.3413C-0.134173 13.5838 0.167616 11.3513 0.715218 9.21263C1.26647 7.05731 2.10004 4.87587 3.05774 3.20506C3.53476 2.37381 4.07141 1.61856 4.65674 1.05569C5.21894 0.515375 5.9868 0 6.91529 0C7.54199 0 8.15409 0.146062 8.75645 0.320625L9.47685 0.535563C9.59692 0.571979 9.71658 0.606417 9.83584 0.638875C10.8885 0.933375 11.9654 1.1875 12.9998 1.1875C14.0341 1.1875 15.1111 0.933375 16.1637 0.638875L17.2406 0.321812C17.8467 0.14725 18.4636 0 19.0842 0ZM19.0842 2.375C18.6182 2.375 18.1314 2.51275 17.6593 2.66356L17.1019 2.84288L16.833 2.92362C15.756 3.22287 14.3992 3.5625 12.9998 3.5625C11.6003 3.5625 10.2435 3.22287 9.16655 2.92362L8.89883 2.84288L8.34028 2.66356C7.86812 2.51156 7.38136 2.375 6.91529 2.375C6.40663 2.46762 5.9503 3.06969 5.60592 3.62781L5.41365 3.95437L5.18244 4.36525C4.35251 5.81163 3.5883 7.78525 3.07721 9.78856C2.59654 11.6601 2.36289 13.4532 2.45173 14.7879L2.48337 15.1359L2.5077 15.3449L2.54421 15.5919C2.62818 16.0681 2.80949 16.625 3.26461 16.625C4.25273 16.625 5.07778 16.1453 6.10363 15.3496L6.59403 14.9601L7.51887 14.2049L7.93748 13.8724C9.23226 12.8713 10.8519 11.875 12.9998 11.875C15.1476 11.875 16.7673 12.8725 18.062 13.8724L18.4819 14.2049L19.4067 14.9601L19.8959 15.3496C20.9217 16.1453 21.7456 16.625 22.7349 16.625C23.1487 16.625 23.3361 16.1654 23.4298 15.7237L23.476 15.4648L23.521 15.0884C23.6707 13.7275 23.4395 11.8049 22.9235 9.78856C22.4538 7.95269 21.7724 6.14056 21.0227 4.73694L20.5859 3.95319L20.3936 3.629C20.0492 3.06969 19.5929 2.46762 19.0842 2.375ZM8.74063 4.75C9.54748 4.75 10.3213 5.06278 10.8918 5.61953C11.4623 6.17628 11.7829 6.93139 11.7829 7.71875C11.7829 8.50611 11.4623 9.26122 10.8918 9.81797C10.3213 10.3747 9.54748 10.6875 8.74063 10.6875C7.93378 10.6875 7.15998 10.3747 6.58945 9.81797C6.01892 9.26122 5.6984 8.50611 5.6984 7.71875C5.6984 6.93139 6.01892 6.17628 6.58945 5.61953C7.15998 5.06278 7.93378 4.75 8.74063 4.75ZM17.2589 4.75C17.5569 4.75004 17.8446 4.85682 18.0674 5.0501C18.2901 5.24338 18.4324 5.5097 18.4673 5.79856L18.4758 5.9375V6.53125H19.0842C19.3944 6.53159 19.6927 6.64748 19.9183 6.85526C20.1438 7.06303 20.2795 7.34701 20.2977 7.64916C20.3159 7.95131 20.2151 8.24883 20.0161 8.48093C19.817 8.71303 19.5346 8.86219 19.2266 8.89794L19.0842 8.90625H18.4758V9.5C18.4754 9.80267 18.3567 10.0938 18.1438 10.3139C17.9308 10.534 17.6398 10.6664 17.3302 10.6841C17.0206 10.7019 16.7157 10.6036 16.4778 10.4093C16.24 10.215 16.0871 9.93949 16.0505 9.63894L16.042 9.5V8.90625H15.4336C15.1234 8.90591 14.8251 8.79002 14.5995 8.58224C14.374 8.37447 14.2383 8.09049 14.2201 7.78834C14.2019 7.48619 14.3027 7.18867 14.5017 6.95657C14.7008 6.72447 14.9832 6.57531 15.2912 6.53956L15.4336 6.53125H16.042V5.9375C16.042 5.62256 16.1702 5.32051 16.3984 5.09781C16.6266 4.87511 16.9362 4.75 17.2589 4.75ZM8.74063 7.125C8.57926 7.125 8.4245 7.18756 8.3104 7.2989C8.19629 7.41025 8.13219 7.56128 8.13219 7.71875C8.13219 7.87622 8.19629 8.02725 8.3104 8.1386C8.4245 8.24994 8.57926 8.3125 8.74063 8.3125C8.902 8.3125 9.05677 8.24994 9.17087 8.1386C9.28498 8.02725 9.34908 7.87622 9.34908 7.71875C9.34908 7.56128 9.28498 7.41025 9.17087 7.2989C9.05677 7.18756 8.902 7.125 8.74063 7.125Z" fill="#EBEBEB"/>
</svg>
