<svg width="15" height="15" viewBox="0 0 15 15" fill="none" xmlns="http://www.w3.org/2000/svg">
<g clip-path="url(#clip0_27_78)">
<path d="M7.43647 0.00415039C3.63772 0.00415039 3.87491 1.65797 3.87491 1.65797L3.87913 3.37139H7.50421V3.8858H2.4393C2.4393 3.8858 0.00848389 3.60903 0.00848389 7.45697C0.00848389 11.305 2.13016 11.1686 2.13016 11.1686H3.39637V9.38291C3.39637 9.38291 3.32811 7.25292 5.48419 7.25292H9.07962C9.07962 7.25292 11.0996 7.28568 11.0996 5.29297V1.99815C11.0996 1.99815 11.4064 0.00415039 7.43647 0.00415039ZM5.43761 1.15639C5.52327 1.15631 5.60811 1.17319 5.68726 1.20606C5.76642 1.23894 5.83834 1.28716 5.89892 1.34797C5.95949 1.40878 6.00752 1.48099 6.04027 1.56045C6.07301 1.63992 6.08983 1.72509 6.08975 1.81109C6.08983 1.89709 6.07301 1.98226 6.04027 2.06173C6.00752 2.1412 5.95949 2.2134 5.89892 2.27421C5.83834 2.33502 5.76642 2.38324 5.68726 2.41612C5.60811 2.44899 5.52327 2.46587 5.43761 2.4658C5.35194 2.46587 5.2671 2.44899 5.18795 2.41612C5.10879 2.38324 5.03687 2.33502 4.97629 2.27421C4.91572 2.2134 4.86769 2.1412 4.83494 2.06173C4.8022 1.98226 4.78538 1.89709 4.78546 1.81109C4.78538 1.72509 4.8022 1.63992 4.83494 1.56045C4.86769 1.48099 4.91572 1.40878 4.97629 1.34797C5.03687 1.28716 5.10879 1.23894 5.18795 1.20606C5.2671 1.17319 5.35194 1.15631 5.43761 1.15639Z" fill="url(#paint0_linear_27_78)"/>
<path d="M7.54433 14.9487C11.3431 14.9487 11.1059 13.2949 11.1059 13.2949L11.1017 11.5815H7.47654V11.0671H12.5414C12.5414 11.0671 14.9723 11.3439 14.9723 7.49582C14.9723 3.64782 12.8506 3.78429 12.8506 3.78429H11.5844V5.56988C11.5844 5.56988 11.6526 7.69988 9.49655 7.69988H5.90113C5.90113 7.69988 3.88111 7.66711 3.88111 9.65988V12.9548C3.88111 12.9548 3.57437 14.9487 7.54427 14.9487M9.54314 13.7966C9.45747 13.7967 9.37264 13.7798 9.29348 13.7469C9.21432 13.714 9.1424 13.6658 9.08183 13.605C9.02125 13.5442 8.97322 13.472 8.94047 13.3925C8.90773 13.313 8.89091 13.2279 8.89099 13.1419C8.8909 13.0559 8.90771 12.9707 8.94046 12.8912C8.9732 12.8117 9.02123 12.7395 9.08181 12.6787C9.14238 12.6179 9.2143 12.5697 9.29347 12.5368C9.37263 12.5039 9.45747 12.487 9.54314 12.4871C9.6288 12.487 9.71364 12.5039 9.7928 12.5368C9.87195 12.5697 9.94387 12.6179 10.0044 12.6787C10.065 12.7395 10.1131 12.8117 10.1458 12.8912C10.1785 12.9706 10.1954 13.0558 10.1953 13.1418C10.1954 13.2278 10.1785 13.313 10.1458 13.3925C10.1131 13.4719 10.065 13.5441 10.0044 13.6049C9.94387 13.6657 9.87195 13.714 9.7928 13.7468C9.71364 13.7797 9.6288 13.7967 9.54314 13.7966Z" fill="url(#paint1_linear_27_78)"/>
</g>
<defs>
<linearGradient id="paint0_linear_27_78" x1="143.81" y1="134.42" x2="888.243" y2="868.547" gradientUnits="userSpaceOnUse">
<stop stop-color="#387EB8"/>
<stop offset="1" stop-color="#366994"/>
</linearGradient>
<linearGradient id="paint1_linear_27_78" x1="216.132" y1="233.548" x2="1015.42" y2="986.192" gradientUnits="userSpaceOnUse">
<stop stop-color="#FFE052"/>
<stop offset="1" stop-color="#FFC331"/>
</linearGradient>
<clipPath id="clip0_27_78">
<rect width="15" height="15" fill="white"/>
</clipPath>
</defs>
</svg>
