<svg width="15" height="15" viewBox="0 0 15 15" fill="none" xmlns="http://www.w3.org/2000/svg">
<g clip-path="url(#clip0_27_75)">
<path d="M0 0H15V15H0V0Z" fill="#F7DF1E"/>
<path d="M3.94409 12.5351L5.09194 11.8405C5.31343 12.2331 5.51487 12.5653 5.99809 12.5653C6.46128 12.5653 6.75337 12.3842 6.75337 11.6794V6.88653H8.16296V11.6993C8.16296 13.1593 7.30714 13.8239 6.0585 13.8239C4.93087 13.8239 4.27632 13.2399 3.94403 12.535M8.9286 12.3841L10.0763 11.7196C10.3785 12.213 10.7712 12.5755 11.4659 12.5755C12.05 12.5755 12.4224 12.2834 12.4224 11.8807C12.4224 11.3974 12.0398 11.2262 11.3954 10.9443L11.0431 10.7932C10.0261 10.3603 9.35147 9.81657 9.35147 8.66872C9.35147 7.61146 10.157 6.80591 11.4156 6.80591C12.3117 6.80591 12.9562 7.1181 13.4193 7.93366L12.3217 8.63854C12.08 8.2056 11.8183 8.03444 11.4156 8.03444C11.0027 8.03444 10.7409 8.29624 10.7409 8.63854C10.7409 9.06142 11.0027 9.23269 11.6068 9.49448L11.9592 9.64548C13.1574 10.1591 13.832 10.6826 13.832 11.8606C13.832 13.1293 12.8352 13.824 11.4961 13.824C10.1871 13.824 9.34134 13.1998 8.92854 12.3842" fill="black"/>
</g>
<defs>
<clipPath id="clip0_27_75">
<rect width="15" height="15" rx="1" fill="white"/>
</clipPath>
</defs>
</svg>
