<svg width="39" height="36" viewBox="0 0 39 36" fill="none" xmlns="http://www.w3.org/2000/svg">
<path d="M2.35388 34.2512L14.6772 22.4506M30.1957 17.2029L26.5068 27.802C26.4477 27.9715 26.3468 28.1249 26.2126 28.2492C26.0785 28.3734 25.915 28.4649 25.7361 28.5159L3.12264 34.954C2.91891 35.0119 2.70249 35.0152 2.49692 34.9636C2.29136 34.9119 2.10453 34.8072 1.95677 34.661C1.80901 34.5147 1.70598 34.3324 1.65889 34.134C1.6118 33.9355 1.62245 33.7285 1.68969 33.5354L9.03259 12.4449C9.08521 12.2934 9.17125 12.1546 9.28485 12.0378C9.39845 11.9211 9.53696 11.829 9.69097 11.7681L20.1225 7.65526C20.3345 7.57139 20.5678 7.54953 20.7928 7.59243C21.0179 7.63533 21.2246 7.74107 21.3869 7.89632L29.9149 16.0644C30.0675 16.2105 30.1746 16.3944 30.2242 16.5955C30.2738 16.7966 30.2639 17.0069 30.1957 17.2029Z" stroke="#FFD700" stroke-width="1.5" stroke-linecap="round" stroke-linejoin="round"/>
<path d="M31.6074 1.94965L36.1851 6.33316C36.5291 6.64831 36.8039 7.02609 36.9933 7.44432C37.1828 7.86256 37.2831 8.31281 37.2884 8.76867C37.2936 9.22453 37.2037 9.6768 37.024 10.0989C36.8442 10.5211 36.5782 10.9046 36.2416 11.2269C35.905 11.5493 35.5045 11.804 35.0636 11.9761C34.6228 12.1483 34.1505 12.2343 33.6744 12.2293C33.1984 12.2243 32.7282 12.1282 32.2914 11.9468C31.8547 11.7654 31.4601 11.5022 31.131 11.1728L26.5514 6.78931C25.9055 6.14281 25.5496 5.27983 25.5599 4.38515C25.5702 3.49048 25.946 2.63524 26.6067 2.00257C27.2674 1.3699 28.1605 1.0101 29.0948 1.00021C30.0291 0.990317 30.9323 1.33112 31.6074 1.94965Z" fill="#FFD700" stroke="#FFD700" stroke-width="1.5" stroke-linecap="round" stroke-linejoin="round"/>
<path d="M18.7844 18.5158C18.5164 18.2501 18.1959 18.0382 17.8415 17.8925C17.4872 17.7467 17.106 17.67 16.7203 17.6667C16.3347 17.6635 15.9522 17.7339 15.5952 17.8738C15.2383 18.0136 14.914 18.2201 14.6412 18.4813C14.3685 18.7425 14.1528 19.053 14.0068 19.3948C13.8607 19.7367 13.7872 20.1029 13.7906 20.4722C13.7939 20.8415 13.8741 21.2065 14.0263 21.5459C14.1785 21.8852 14.3998 22.1921 14.6772 22.4487C15.225 22.9554 15.9588 23.2357 16.7203 23.2294C17.4819 23.223 18.2104 22.9305 18.749 22.4148C19.2875 21.8991 19.593 21.2015 19.5996 20.4722C19.6062 19.7429 19.3135 19.0404 18.7844 18.5158Z" stroke="#FFD700" stroke-width="1.5" stroke-linecap="round" stroke-linejoin="round"/>
</svg>
