<svg width="50" height="50" viewBox="0 0 50 50" fill="none" xmlns="http://www.w3.org/2000/svg">
<path d="M34.8542 4.30209H15.1458C13.8388 4.38061 12.6155 4.97166 11.7417 5.94686C10.868 6.92206 10.4143 8.20264 10.4792 9.51043V40.4896C10.4143 41.7974 10.868 43.078 11.7417 44.0532C12.6155 45.0284 13.8388 45.6194 15.1458 45.6979H34.8542C36.1612 45.6194 37.3845 45.0284 38.2583 44.0532C39.132 43.078 39.5858 41.7974 39.5208 40.4896V9.51043C39.5858 8.20264 39.132 6.92206 38.2583 5.94686C37.3845 4.97166 36.1612 4.38061 34.8542 4.30209ZM37.4375 40.4896C37.5016 41.245 37.267 41.9953 36.784 42.5796C36.301 43.1639 35.6081 43.5355 34.8542 43.6146H15.1458C14.3919 43.5355 13.699 43.1639 13.216 42.5796C12.733 41.9953 12.4984 41.245 12.5625 40.4896V9.51043C12.4984 8.75506 12.733 8.00467 13.216 7.42039C13.699 6.8361 14.3919 6.46452 15.1458 6.38543H18.3333V7.44793C18.3333 8.00046 18.5528 8.53037 18.9435 8.92107C19.3342 9.31177 19.8641 9.53126 20.4167 9.53126H29.5833C30.1359 9.53126 30.6658 9.31177 31.0565 8.92107C31.4472 8.53037 31.6667 8.00046 31.6667 7.44793V6.38543H34.8542C35.6081 6.46452 36.301 6.8361 36.784 7.42039C37.267 8.00467 37.5016 8.75506 37.4375 9.51043V40.4896Z" fill="#FFD700"/>
<path d="M20.8333 39.4458H29.1667C29.4429 39.4458 29.7079 39.3361 29.9032 39.1407C30.0986 38.9454 30.2083 38.6804 30.2083 38.4042C30.2083 38.1279 30.0986 37.8629 29.9032 37.6676C29.7079 37.4722 29.4429 37.3625 29.1667 37.3625H20.8333C20.5571 37.3625 20.2921 37.4722 20.0968 37.6676C19.9014 37.8629 19.7917 38.1279 19.7917 38.4042C19.7917 38.6804 19.9014 38.9454 20.0968 39.1407C20.2921 39.3361 20.5571 39.4458 20.8333 39.4458Z" fill="#FFD700"/>
</svg>
