<svg width="37" height="37" viewBox="0 0 37 37" fill="none" xmlns="http://www.w3.org/2000/svg">
<g clip-path="url(#clip0_14_120)">
<path d="M18.5 1.15625C17.8867 1.15625 17.2985 1.39989 16.8648 1.83357C16.4311 2.26724 16.1875 2.85544 16.1875 3.46875C16.1875 4.32206 16.6523 5.05397 17.3438 5.45634V8.09375H11.5625C8.38281 8.09375 5.78125 10.6953 5.78125 13.875V16.1875H2.3125V25.4375H5.78125V31.2188H31.2188V25.4375H34.6875V16.1875H31.2188V13.875C31.2188 10.6953 28.6172 8.09375 25.4375 8.09375H19.6562V5.45634C20.3477 5.05397 20.8125 4.32322 20.8125 3.46875C20.8125 2.85544 20.5689 2.26724 20.1352 1.83357C19.7015 1.39989 19.1133 1.15625 18.5 1.15625ZM11.5625 10.4062H25.4375C27.3661 10.4062 28.9062 11.9464 28.9062 13.875V28.9062H26.5938V23.125H10.4062V28.9062H8.09375V13.875C8.09375 11.9464 9.63388 10.4062 11.5625 10.4062ZM13.875 15.0312C13.2617 15.0312 12.6735 15.2749 12.2398 15.7086C11.8061 16.1422 11.5625 16.7304 11.5625 17.3438C11.5625 17.9571 11.8061 18.5453 12.2398 18.9789C12.6735 19.4126 13.2617 19.6562 13.875 19.6562C14.4883 19.6562 15.0765 19.4126 15.5102 18.9789C15.9439 18.5453 16.1875 17.9571 16.1875 17.3438C16.1875 16.7304 15.9439 16.1422 15.5102 15.7086C15.0765 15.2749 14.4883 15.0312 13.875 15.0312ZM23.125 15.0312C22.5117 15.0312 21.9235 15.2749 21.4898 15.7086C21.0561 16.1422 20.8125 16.7304 20.8125 17.3438C20.8125 17.9571 21.0561 18.5453 21.4898 18.9789C21.9235 19.4126 22.5117 19.6562 23.125 19.6562C23.7383 19.6562 24.3265 19.4126 24.7602 18.9789C25.1939 18.5453 25.4375 17.9571 25.4375 17.3438C25.4375 16.7304 25.1939 16.1422 24.7602 15.7086C24.3265 15.2749 23.7383 15.0312 23.125 15.0312ZM4.625 18.5H5.78125V23.125H4.625V18.5ZM31.2188 18.5H32.375V23.125H31.2188V18.5ZM12.7188 25.4375H15.0312V28.9062H12.7188V25.4375ZM17.3438 25.4375H19.6562V28.9062H17.3438V25.4375ZM21.9688 25.4375H24.2812V28.9062H21.9688V25.4375Z" fill="#FFD700"/>
</g>
<defs>
<clipPath id="clip0_14_120">
<rect width="37" height="37" fill="white"/>
</clipPath>
</defs>
</svg>
